<svg width="227" height="48" viewBox="0 0 227 48" fill="none" xmlns="http://www.w3.org/2000/svg">
<path d="M0.896 47.024V46.064C2.176 45.936 3.264 45.552 4.16 44.912C5.056 44.304 5.744 43.248 6.224 41.744C6.704 40.24 6.944 38.128 6.944 35.408V9.104C6.944 7.92 6.848 7.056 6.656 6.512C6.496 5.936 6.16 5.552 5.648 5.36C5.136 5.136 4.368 5.008 3.344 4.976V4.016C4.144 4.048 5.184 4.08 6.464 4.112C7.776 4.144 9.152 4.16 10.592 4.16C12.032 4.16 13.424 4.144 14.768 4.112C16.144 4.08 17.28 4.048 18.176 4.016V4.976C17.184 5.008 16.416 5.136 15.872 5.36C15.36 5.552 15.008 5.936 14.816 6.512C14.656 7.056 14.576 7.92 14.576 9.104V26.672C14.576 27.984 14.576 29.408 14.576 30.944C14.576 32.448 14.512 33.92 14.384 35.36C14.288 36.8 14.08 38.08 13.76 39.2C13.12 41.408 11.728 43.264 9.584 44.768C7.472 46.272 4.576 47.024 0.896 47.024ZM26.276 38.336C24.836 38.336 23.636 38.064 22.676 37.52C21.716 36.976 21.012 36.256 20.564 35.36C20.116 34.432 19.892 33.424 19.892 32.336C19.892 30.96 20.196 29.84 20.804 28.976C21.444 28.112 22.26 27.408 23.252 26.864C24.244 26.32 25.284 25.872 26.372 25.52C27.492 25.168 28.548 24.832 29.54 24.512C30.564 24.16 31.38 23.76 31.988 23.312C32.628 22.832 32.948 22.224 32.948 21.488V17.744C32.948 16.912 32.804 16.176 32.516 15.536C32.26 14.864 31.844 14.352 31.268 14C30.724 13.648 30.004 13.472 29.108 13.472C28.468 13.472 27.828 13.568 27.188 13.76C26.548 13.92 26.02 14.208 25.604 14.624C26.5 14.944 27.188 15.44 27.668 16.112C28.18 16.752 28.436 17.488 28.436 18.32C28.436 19.408 28.052 20.272 27.284 20.912C26.548 21.552 25.668 21.872 24.644 21.872C23.492 21.872 22.612 21.52 22.004 20.816C21.428 20.08 21.14 19.2 21.14 18.176C21.14 17.248 21.364 16.48 21.812 15.872C22.292 15.264 22.948 14.688 23.78 14.144C24.676 13.632 25.748 13.232 26.996 12.944C28.276 12.656 29.652 12.512 31.124 12.512C32.596 12.512 33.924 12.672 35.108 12.992C36.292 13.28 37.284 13.824 38.084 14.624C38.82 15.36 39.3 16.272 39.524 17.36C39.748 18.416 39.86 19.76 39.86 21.392V34.448C39.86 35.248 39.94 35.808 40.1 36.128C40.26 36.416 40.532 36.56 40.916 36.56C41.204 36.56 41.476 36.48 41.732 36.32C42.02 36.16 42.324 35.968 42.644 35.744L43.124 36.56C42.452 37.136 41.668 37.584 40.772 37.904C39.908 38.192 38.932 38.336 37.844 38.336C36.66 38.336 35.716 38.176 35.012 37.856C34.308 37.504 33.796 37.04 33.476 36.464C33.188 35.888 33.044 35.216 33.044 34.448C32.276 35.664 31.348 36.624 30.26 37.328C29.172 38 27.844 38.336 26.276 38.336ZM29.684 35.264C30.324 35.264 30.9 35.12 31.412 34.832C31.956 34.512 32.468 34 32.948 33.296V23.456C32.66 23.936 32.26 24.368 31.748 24.752C31.236 25.136 30.692 25.536 30.116 25.952C29.54 26.336 28.98 26.768 28.436 27.248C27.924 27.728 27.508 28.32 27.188 29.024C26.868 29.728 26.708 30.576 26.708 31.568C26.708 32.816 26.98 33.744 27.524 34.352C28.068 34.96 28.788 35.264 29.684 35.264ZM61.9198 12.512C63.2638 12.512 64.3518 12.688 65.1838 13.04C66.0158 13.36 66.6878 13.808 67.1998 14.384C67.7118 14.992 68.0798 15.792 68.3038 16.784C68.5278 17.744 68.6398 19.024 68.6398 20.624V33.536C68.6398 34.88 68.8478 35.792 69.2638 36.272C69.6798 36.752 70.3998 36.992 71.4238 36.992V38C70.8478 37.968 69.9678 37.936 68.7838 37.904C67.6318 37.84 66.4958 37.808 65.3758 37.808C64.2238 37.808 63.0878 37.84 61.9678 37.904C60.8478 37.936 59.9998 37.968 59.4238 38V36.992C60.2878 36.992 60.8798 36.752 61.1998 36.272C61.5518 35.792 61.7278 34.88 61.7278 33.536V18.608C61.7278 17.808 61.6638 17.12 61.5358 16.544C61.4078 15.936 61.1518 15.472 60.7678 15.152C60.4158 14.8 59.8718 14.624 59.1358 14.624C58.3038 14.624 57.5358 14.864 56.8318 15.344C56.1278 15.824 55.5518 16.496 55.1038 17.36C54.6878 18.192 54.4798 19.136 54.4798 20.192V33.536C54.4798 34.88 54.6558 35.792 55.0078 36.272C55.3598 36.752 55.9518 36.992 56.7838 36.992V38C56.2717 37.968 55.4718 37.936 54.3838 37.904C53.3278 37.84 52.2398 37.808 51.1198 37.808C49.9038 37.808 48.6558 37.84 47.3758 37.904C46.0958 37.936 45.1358 37.968 44.4958 38V36.992C45.6158 36.992 46.3998 36.752 46.8478 36.272C47.3278 35.792 47.5678 34.88 47.5678 33.536V18.416C47.5678 16.976 47.3438 15.92 46.8958 15.248C46.4798 14.544 45.6798 14.192 44.4958 14.192V13.184C45.5198 13.28 46.5118 13.328 47.4718 13.328C48.8158 13.328 50.0638 13.28 51.2158 13.184C52.3998 13.056 53.4878 12.88 54.4798 12.656V16.976C55.2478 15.376 56.2878 14.24 57.5998 13.568C58.9118 12.864 60.3518 12.512 61.9198 12.512ZM76.3678 12.512C77.7118 12.512 78.7998 12.688 79.6318 13.04C80.4638 13.36 81.1358 13.808 81.6478 14.384C82.1598 14.992 82.5278 15.792 82.7518 16.784C82.9758 17.744 83.0878 19.024 83.0878 20.624V33.536C83.0878 34.88 83.3118 35.792 83.7598 36.272C84.2398 36.752 85.0398 36.992 86.1598 36.992V38C85.5518 37.968 84.6398 37.936 83.4238 37.904C82.2078 37.84 81.0078 37.808 79.8238 37.808C78.6718 37.808 77.5358 37.84 76.4158 37.904C75.2958 37.936 74.4478 37.968 73.8718 38V36.992C74.7358 36.992 75.3278 36.752 75.6478 36.272C75.9998 35.792 76.1758 34.88 76.1758 33.536V18.608C76.1758 17.808 76.0958 17.12 75.9358 16.544C75.8078 15.936 75.5358 15.472 75.1198 15.152C74.7358 14.8 74.1278 14.624 73.2958 14.624C72.4638 14.624 71.6958 14.88 70.9918 15.392C70.2878 15.904 69.7118 16.592 69.2638 17.456C68.8478 18.32 68.6238 19.28 68.5918 20.336L68.3518 17.408C69.2158 15.488 70.3518 14.192 71.7598 13.52C73.1998 12.848 74.7358 12.512 76.3678 12.512ZM94.1889 0.799998C95.5329 0.799998 96.5889 1.136 97.3569 1.808C98.1569 2.448 98.5569 3.344 98.5569 4.496C98.5569 5.648 98.1569 6.56 97.3569 7.232C96.5889 7.872 95.5329 8.192 94.1889 8.192C92.8449 8.192 91.7729 7.872 90.9729 7.232C90.2049 6.56 89.8209 5.648 89.8209 4.496C89.8209 3.344 90.2049 2.448 90.9729 1.808C91.7729 1.136 92.8449 0.799998 94.1889 0.799998ZM97.9329 12.656V33.536C97.9329 34.88 98.1569 35.792 98.6049 36.272C99.0849 36.752 99.8849 36.992 101.005 36.992V38C100.429 37.968 99.5329 37.936 98.3169 37.904C97.1009 37.84 95.8689 37.808 94.6209 37.808C93.3729 37.808 92.1089 37.84 90.8289 37.904C89.5489 37.936 88.5889 37.968 87.9489 38V36.992C89.0689 36.992 89.8529 36.752 90.3009 36.272C90.7809 35.792 91.0209 34.88 91.0209 33.536V18.416C91.0209 16.976 90.7969 15.92 90.3489 15.248C89.9329 14.544 89.1329 14.192 87.9489 14.192V13.184C88.9729 13.28 89.9649 13.328 90.9249 13.328C92.2689 13.328 93.5169 13.28 94.6689 13.184C95.8529 13.056 96.9409 12.88 97.9329 12.656ZM112.882 0.415998V33.536C112.882 34.88 113.106 35.792 113.554 36.272C114.034 36.752 114.834 36.992 115.954 36.992V38C115.346 37.968 114.434 37.936 113.218 37.904C112.002 37.84 110.77 37.808 109.522 37.808C108.274 37.808 107.01 37.84 105.73 37.904C104.482 37.936 103.538 37.968 102.898 38V36.992C104.018 36.992 104.802 36.752 105.25 36.272C105.73 35.792 105.97 34.88 105.97 33.536V6.176C105.97 4.736 105.746 3.68 105.298 3.008C104.882 2.304 104.082 1.952 102.898 1.952V0.943999C103.922 1.04 104.914 1.088 105.874 1.088C107.186 1.088 108.434 1.04 109.618 0.943999C110.802 0.815999 111.89 0.639998 112.882 0.415998ZM128.069 0.415998V33.536C128.069 34.88 128.293 35.792 128.741 36.272C129.221 36.752 130.021 36.992 131.141 36.992V38C130.533 37.968 129.621 37.936 128.405 37.904C127.189 37.84 125.957 37.808 124.709 37.808C123.461 37.808 122.197 37.84 120.917 37.904C119.669 37.936 118.725 37.968 118.085 38V36.992C119.205 36.992 119.989 36.752 120.437 36.272C120.917 35.792 121.157 34.88 121.157 33.536V6.176C121.157 4.736 120.933 3.68 120.485 3.008C120.069 2.304 119.269 1.952 118.085 1.952V0.943999C119.109 1.04 120.101 1.088 121.061 1.088C122.373 1.088 123.621 1.04 124.805 0.943999C125.989 0.815999 127.077 0.639998 128.069 0.415998ZM145.099 12.512C147.915 12.512 150.123 13.344 151.723 15.008C153.323 16.672 154.123 19.392 154.123 23.168H138.331L138.235 22.256H148.075C148.107 20.688 148.011 19.248 147.787 17.936C147.563 16.592 147.211 15.52 146.731 14.72C146.251 13.92 145.611 13.52 144.811 13.52C143.691 13.52 142.731 14.224 141.931 15.632C141.163 17.04 140.699 19.376 140.539 22.64L140.683 22.928C140.651 23.312 140.619 23.712 140.587 24.128C140.587 24.544 140.587 24.976 140.587 25.424C140.587 27.632 140.891 29.424 141.499 30.8C142.139 32.176 142.939 33.184 143.898 33.824C144.859 34.432 145.835 34.736 146.827 34.736C147.499 34.736 148.187 34.64 148.891 34.448C149.627 34.224 150.363 33.84 151.099 33.296C151.835 32.72 152.523 31.92 153.163 30.896L154.027 31.184C153.643 32.4 153.035 33.584 152.203 34.736C151.371 35.888 150.315 36.832 149.035 37.568C147.755 38.304 146.219 38.672 144.427 38.672C142.251 38.672 140.331 38.208 138.667 37.28C137.003 36.352 135.691 34.944 134.73 33.056C133.803 31.168 133.339 28.768 133.339 25.856C133.339 22.88 133.835 20.4 134.827 18.416C135.851 16.432 137.243 14.96 139.003 14C140.795 13.008 142.827 12.512 145.099 12.512Z" fill="black"/>
<path d="M169.382 3.392C171.27 3.392 172.726 3.6 173.75 4.016C174.774 4.4 175.654 4.816 176.39 5.264C176.774 5.488 177.078 5.664 177.302 5.792C177.558 5.888 177.798 5.936 178.022 5.936C178.342 5.936 178.566 5.76 178.694 5.408C178.854 5.056 178.982 4.528 179.078 3.824H180.182C180.15 4.432 180.102 5.168 180.038 6.032C180.006 6.864 179.974 7.968 179.942 9.344C179.942 10.72 179.942 12.528 179.942 14.768H178.838C178.71 13.104 178.326 11.488 177.686 9.92C177.046 8.352 176.134 7.072 174.95 6.08C173.798 5.056 172.374 4.544 170.678 4.544C169.142 4.544 167.878 4.976 166.886 5.84C165.894 6.704 165.398 7.904 165.398 9.44C165.398 10.72 165.718 11.824 166.358 12.752C166.998 13.648 167.926 14.528 169.142 15.392C170.39 16.256 171.894 17.296 173.654 18.512C175.19 19.504 176.566 20.496 177.782 21.488C178.998 22.48 179.974 23.6 180.71 24.848C181.446 26.096 181.814 27.584 181.814 29.312C181.814 31.424 181.254 33.168 180.134 34.544C179.046 35.92 177.606 36.96 175.814 37.664C174.022 38.336 172.054 38.672 169.91 38.672C167.926 38.672 166.342 38.48 165.158 38.096C163.974 37.712 162.982 37.312 162.182 36.896C161.478 36.448 160.934 36.224 160.55 36.224C160.23 36.224 159.99 36.4 159.83 36.752C159.702 37.104 159.59 37.632 159.494 38.336H158.39C158.454 37.568 158.486 36.672 158.486 35.648C158.518 34.624 158.534 33.296 158.534 31.664C158.566 30 158.582 27.904 158.582 25.376H159.686C159.814 27.488 160.166 29.472 160.742 31.328C161.35 33.152 162.262 34.624 163.478 35.744C164.726 36.864 166.374 37.424 168.422 37.424C169.542 37.424 170.534 37.232 171.398 36.848C172.294 36.432 173.014 35.824 173.558 35.024C174.102 34.224 174.374 33.232 174.374 32.048C174.374 30.704 174.054 29.536 173.414 28.544C172.806 27.552 171.958 26.624 170.87 25.76C169.814 24.896 168.582 24.016 167.174 23.12C165.67 22.128 164.262 21.136 162.95 20.144C161.638 19.152 160.582 18.016 159.782 16.736C159.014 15.456 158.63 13.936 158.63 12.176C158.63 10.16 159.126 8.512 160.118 7.232C161.142 5.92 162.47 4.96 164.102 4.352C165.766 3.712 167.526 3.392 169.382 3.392ZM226.693 4.016V4.976C225.669 5.008 224.901 5.136 224.389 5.36C223.877 5.552 223.525 5.936 223.333 6.512C223.173 7.056 223.093 7.92 223.093 9.104V32.912C223.093 34.064 223.173 34.928 223.333 35.504C223.525 36.08 223.877 36.464 224.389 36.656C224.901 36.848 225.669 36.976 226.693 37.04V38C225.797 37.936 224.661 37.904 223.285 37.904C221.941 37.872 220.565 37.856 219.157 37.856C217.621 37.856 216.181 37.872 214.837 37.904C213.493 37.904 212.405 37.936 211.573 38V37.04C212.661 36.976 213.477 36.848 214.021 36.656C214.597 36.464 214.981 36.08 215.173 35.504C215.365 34.928 215.461 34.064 215.461 32.912V6.944H215.797L203.893 38.048H203.125L190.165 7.136V30.128C190.165 31.888 190.261 33.248 190.453 34.208C190.645 35.136 191.061 35.808 191.701 36.224C192.373 36.608 193.413 36.88 194.821 37.04V38C194.213 37.936 193.413 37.904 192.421 37.904C191.429 37.872 190.501 37.856 189.637 37.856C188.901 37.856 188.149 37.872 187.381 37.904C186.613 37.904 185.973 37.936 185.461 38V37.04C186.485 36.88 187.253 36.608 187.765 36.224C188.277 35.84 188.613 35.216 188.773 34.352C188.965 33.456 189.061 32.24 189.061 30.704V9.104C189.061 7.92 188.965 7.056 188.773 6.512C188.613 5.936 188.261 5.552 187.717 5.36C187.205 5.136 186.453 5.008 185.461 4.976V4.016C185.973 4.048 186.613 4.08 187.381 4.112C188.149 4.144 188.901 4.16 189.637 4.16C191.013 4.16 192.357 4.144 193.669 4.112C195.013 4.08 196.197 4.048 197.221 4.016L207.301 28.352L206.101 29.456L215.749 4.16C216.293 4.16 216.853 4.16 217.429 4.16C218.005 4.16 218.581 4.16 219.157 4.16C220.565 4.16 221.941 4.144 223.285 4.112C224.661 4.08 225.797 4.048 226.693 4.016Z" fill="#372B20"/>
</svg>
