<svg width="28" height="28" viewBox="0 0 28 28" fill="none" xmlns="http://www.w3.org/2000/svg">
<path fill-rule="evenodd" clip-rule="evenodd" d="M5.25 0.25C2.48858 0.25 0.25 2.48857 0.25 5.25V22.75C0.25 25.5114 2.48858 27.75 5.25 27.75H22.75C25.5114 27.75 27.75 25.5114 27.75 22.75V5.25C27.75 2.48857 25.5114 0.25 22.75 0.25H5.25ZM12.831 12.2064L5.77723 7.18176H4.85228C4.48564 7.18176 4.17308 7.41326 4.05279 7.73807L13.375 14.544L22.6973 7.73804C22.5769 7.41325 22.2644 7.18176 21.8978 7.18176H20.9726L13.9189 12.2064L13.375 12.5939L12.831 12.2064ZM17.741 7.18176H9.00896L13.375 10.2918L17.741 7.18176ZM4 10.0211V19.9659C4 20.4365 4.38158 20.8181 4.85228 20.8181H6.04548V11.5144L4 10.0211ZM22.75 10.021L20.7045 11.5144V20.8181H21.8978C22.3684 20.8181 22.75 20.4365 22.75 19.9659V10.021ZM18.8295 12.8832L13.9278 16.4619L13.375 16.8655L12.8221 16.4619L7.92048 12.8832V20.8181H18.8295V12.8832Z" fill="#C4AB88"/>
</svg>
