<svg width="28" height="28" viewBox="0 0 28 28" fill="none" xmlns="http://www.w3.org/2000/svg">
<path fill-rule="evenodd" clip-rule="evenodd" d="M5.25 0.25C2.48858 0.25 0.25 2.48857 0.25 5.25V22.75C0.25 25.5114 2.48858 27.75 5.25 27.75H22.75C25.5114 27.75 27.75 25.5114 27.75 22.75V5.25C27.75 2.48857 25.5114 0.25 22.75 0.25H5.25ZM6.75569 8.88636C7.93243 8.88636 8.88636 7.93242 8.88636 6.75569C8.88636 5.57894 7.93243 4.625 6.75569 4.625C5.57894 4.625 4.625 5.57894 4.625 6.75569C4.625 7.93242 5.57894 8.88636 6.75569 8.88636ZM8.88636 23.375V10.5909H4.625V23.375H8.88636ZM14.4261 10.5909H10.5909V23.375H14.4261V15.663C14.9203 14.8595 15.7725 14 16.983 14C18.6875 14 19.1136 15.7045 19.1136 16.5569V23.375H23.375V16.5569C23.375 14.273 22.3781 10.5909 18.6875 10.5909C16.3401 10.5909 15.0368 11.4473 14.4261 12.2495V10.5909Z" fill="#C4AB88"/>
</svg>
