<svg width="30" height="28" viewBox="0 0 30 28" fill="none" xmlns="http://www.w3.org/2000/svg">
<path fill-rule="evenodd" clip-rule="evenodd" d="M5.45455 0C2.44208 0 0 2.23222 0 4.9858V22.4361C0 25.1896 2.44208 27.4219 5.45455 27.4219H24.5455C27.5579 27.4219 30 25.1896 30 22.4361V4.9858C30 2.23222 27.5579 0 24.5455 0H5.45455ZM12.2107 6.48726C10.5134 6.48726 9.22923 6.74907 7.82198 7.3806C7.7416 7.41668 7.67431 7.47321 7.62824 7.54341C6.66205 9.01534 4.77273 13.1126 4.77273 17.9602C4.77273 18.0706 4.8197 18.1767 4.90373 18.256C5.78774 19.09 6.59238 19.7035 7.45481 20.1365C8.32233 20.572 9.22665 20.8142 10.2957 20.9317C10.4777 20.9517 10.6556 20.872 10.7499 20.7284L11.2197 20.0126C10.7718 19.8731 10.3769 19.6859 10.0825 19.5269C9.895 19.4255 9.74185 19.332 9.63416 19.263C9.5802 19.2283 9.53731 19.1996 9.50688 19.1787L9.47062 19.1537L9.45974 19.146L9.45616 19.1433L9.45485 19.1425C9.15277 18.9241 9.10051 18.5225 9.33938 18.2464C9.57815 17.9704 10.0166 17.9236 10.3187 18.1416L10.3217 18.1437L10.3428 18.1584C10.3628 18.172 10.3942 18.1932 10.4356 18.2197C10.5188 18.2731 10.6412 18.3479 10.7922 18.4295C11.0998 18.5958 11.5012 18.7766 11.9185 18.874C11.9325 18.8773 11.9463 18.881 11.9599 18.8849C12.6094 19.0405 13.7411 19.2351 15 19.2351C16.2589 19.2351 17.3905 19.0404 18.04 18.8848C18.0535 18.8808 18.0674 18.8773 18.0814 18.874C18.4987 18.7766 18.9 18.5958 19.2076 18.4295C19.3587 18.3479 19.481 18.2731 19.5642 18.2197C19.6057 18.1932 19.637 18.172 19.6571 18.1584L19.6782 18.1437L19.6812 18.1416C19.9833 17.9236 20.4217 17.9704 20.6605 18.2464C20.8994 18.5225 20.8478 18.9235 20.5458 19.1418L20.5437 19.1433L20.5402 19.146L20.5293 19.1537L20.493 19.1787C20.4626 19.1996 20.4196 19.2283 20.3656 19.263C20.258 19.332 20.1049 19.4255 19.9173 19.5269C19.623 19.6859 19.2281 19.873 18.7803 20.0126L19.2502 20.7284C19.3444 20.872 19.5222 20.9517 19.7043 20.9317C20.7734 20.8142 21.6777 20.572 22.5451 20.1365C23.4076 19.7035 24.2123 19.09 25.0962 18.256C25.1802 18.1767 25.2273 18.0706 25.2273 17.9602C25.2273 13.1126 23.338 9.01534 22.3718 7.54341C22.3257 7.47321 22.2584 7.41668 22.178 7.3806C20.7708 6.74907 19.4865 6.48726 17.7893 6.48726C17.5891 6.48726 17.4115 6.6043 17.3482 6.7778L17.0356 7.63487C16.9591 7.61225 16.8745 7.58872 16.7825 7.56523C16.3376 7.45162 15.7133 7.33711 15 7.33711C14.2867 7.33711 13.6624 7.45162 13.2175 7.56523C13.1255 7.58872 13.0409 7.61225 12.9644 7.63487L12.6518 6.7778C12.5885 6.6043 12.4109 6.48726 12.2107 6.48726ZM11.7457 15.8356C12.516 15.8356 13.1404 15.1698 13.1404 14.3484C13.1404 13.5271 12.516 12.8612 11.7457 12.8612C10.9755 12.8612 10.3511 13.5271 10.3511 14.3484C10.3511 15.1698 10.9755 15.8356 11.7457 15.8356ZM18.2542 15.8356C19.0244 15.8356 19.6488 15.1698 19.6488 14.3484C19.6488 13.5271 19.0244 12.8612 18.2542 12.8612C17.484 12.8612 16.8596 13.5271 16.8596 14.3484C16.8596 15.1698 17.484 15.8356 18.2542 15.8356Z" fill="#C4AB88"/>
</svg>
