<svg width="28" height="28" viewBox="0 0 28 28" fill="none" xmlns="http://www.w3.org/2000/svg">
<path fill-rule="evenodd" clip-rule="evenodd" d="M5.25 0.25C2.48858 0.25 0.25 2.48857 0.25 5.25V22.75C0.25 25.5114 2.48858 27.75 5.25 27.75H22.75C25.5114 27.75 27.75 25.5114 27.75 22.75V5.25C27.75 2.48857 25.5114 0.25 22.75 0.25H5.25ZM7.51864 6.63661C9.32683 5.09952 11.6233 4.25656 13.9965 4.2588C16.3704 4.2549 18.6679 5.09669 20.4774 6.63322C22.2869 8.16976 23.4898 10.3006 23.8706 12.6436C24.2515 14.9867 23.7853 17.3889 22.5555 19.4194C21.3259 21.4499 19.4131 22.976 17.1603 23.724C16.6531 23.8204 16.4915 23.5251 16.4915 23.2585V20.4934C16.516 20.1555 16.4675 19.8164 16.3496 19.4988C16.2318 19.1811 16.047 18.8925 15.8081 18.6524C18.033 18.4066 20.3683 17.5634 20.3683 13.7248C20.3838 12.732 20.0158 11.7715 19.3409 11.0431C19.6456 10.1817 19.6103 9.23654 19.2419 8.4004C19.2419 8.4004 18.409 8.13291 16.4985 9.42516C14.8614 8.9759 13.1334 8.9759 11.4963 9.42516C9.59004 8.13205 8.75026 8.4004 8.75026 8.4004C8.38208 9.23666 8.34729 10.182 8.653 11.0431C7.97834 11.771 7.60981 12.7306 7.62389 13.7231C7.62389 17.5511 9.95565 18.4075 12.1728 18.661C11.8098 19.0149 11.5849 19.4866 11.5389 19.9915C11.2939 20.1292 11.024 20.217 10.7449 20.2499C10.4658 20.2826 10.1829 20.2598 9.91271 20.1826C9.64249 20.1054 9.39025 19.9754 9.1706 19.8C8.95095 19.6248 8.76823 19.4076 8.63303 19.1612C8.47319 18.8846 8.25223 18.6481 7.98701 18.4699C7.72181 18.2917 7.41938 18.1765 7.10283 18.133C7.10283 18.133 6.12844 18.1209 7.03509 18.7409C7.56695 19.08 7.96 19.5981 8.14323 20.2016C8.14323 20.2016 8.71726 22.12 11.4963 21.5174C11.5003 22.1474 11.4982 22.6782 11.497 23.004C11.4966 23.1106 11.4963 23.1953 11.4963 23.2542C11.4963 23.5183 11.3382 23.8109 10.8397 23.724C8.58744 22.9761 6.67509 21.4506 5.44535 19.4209C4.21563 17.3911 3.7489 14.9897 4.12883 12.6471C4.50874 10.3045 5.71046 8.17371 7.51864 6.63661Z" fill="#C4AB88"/>
</svg>
