<svg width="28" height="28" viewBox="0 0 28 28" fill="none" xmlns="http://www.w3.org/2000/svg">
<path fill-rule="evenodd" clip-rule="evenodd" d="M5.25 0.25C2.48858 0.25 0.25 2.48857 0.25 5.25V22.75C0.25 25.5114 2.48858 27.75 5.25 27.75H22.75C25.5114 27.75 27.75 25.5114 27.75 22.75V5.25C27.75 2.48857 25.5114 0.25 22.75 0.25H5.25ZM14 4.625C8.82233 4.625 4.625 8.82232 4.625 14C4.625 15.6501 5.05166 17.2017 5.80093 18.5494L4.96595 23.034L9.45066 22.1991C10.7983 22.9484 12.3499 23.375 14 23.375C19.1776 23.375 23.375 19.1776 23.375 14C23.375 8.82232 19.1776 4.625 14 4.625ZM11.5668 8.8493C11.1654 8.83057 10.4215 8.87967 9.86351 9.4377C8.95489 10.3463 8.94531 11.7736 9.30163 13.0712C9.66448 14.3926 10.4439 15.7395 11.3523 16.6479C12.2608 17.5564 13.6076 18.3358 14.929 18.6987C16.2268 19.055 17.654 19.0455 18.5626 18.1369C19.1206 17.5789 19.1698 16.8351 19.151 16.4338C19.1338 16.0627 18.9189 15.7726 18.6701 15.5951L17.533 14.7837C17.0245 14.4209 16.3283 14.4786 15.8865 14.9204L15.3123 15.4946C14.8488 15.3049 14.1029 14.9228 13.5903 14.4101C13.0776 13.8975 12.6955 13.1516 12.5059 12.6881L13.08 12.1139C13.5218 11.6721 13.5796 10.9758 13.2168 10.4673L12.4053 9.33018C12.2278 9.08144 11.9376 8.8666 11.5668 8.8493Z" fill="#C4AB88"/>
</svg>
